<?xml version="1.0" encoding="utf-8"?>
<svg xmlns="http://www.w3.org/2000/svg" style="margin: auto; background: none; display: block; shape-rendering: auto;" width="314" height="208" preserveAspectRatio="xMidYMid">
<style type="text/css">
  text {
    text-anchor: middle; font-size: 130px; opacity: 0;
  }
</style>
<g style="transform-origin: 157px 104px; transform: scale(1.625);">
<g transform="translate(157,104)">
  <g transform="translate(0,0)"><g class="path" style="transform: matrix(1, 0, 0, 1, 0, 14.925); opacity: 0.05; transform-origin: -54.56px 5.2592px; animation: 1s linear 0s 1 normal forwards running float-btt-in-7823ec4e-485e-4552-aa56-c85c699f8908;"><path d="M31.76-47.04L31.76-47.04L31.76-47.04Q24.80-47.04 20.40-42.48L20.40-42.48L20.40-42.48Q16-37.92 16-30.72L16-30.72L14.32-30.72L14.32-30.72Q14.32-38.64 19.20-43.68L19.20-43.68L19.20-43.68Q24.08-48.72 31.76-48.72L31.76-48.72L31.76-48.72Q34.56-48.72 37.12-48.08L37.12-48.08L37.12-48.08Q39.68-47.44 40.92-46.80L40.92-46.80L40.92-46.80Q42.16-46.16 44.84-44.68L44.84-44.68L44.84-44.68Q47.52-43.20 49.20-42.44L49.20-42.44L49.20-42.44Q50.88-41.68 54.52-40.84L54.52-40.84L54.52-40.84Q58.16-40 62.56-40L62.56-40L62.56-38.32L62.56-38.32Q60-38.32 57.84-38.56L57.84-38.56L57.84-38.56Q57.20-37.92 56.24-36.60L56.24-36.60L56.24-36.60Q55.28-35.28 52.96-30.20L52.96-30.20L52.96-30.20Q50.64-25.12 48.48-18.24L48.48-18.24L56.96-18.24L56.80-16.80L48.08-16.80L48.08-16.80Q46.72-12.40 45.64-7.80L45.64-7.80L45.64-7.80Q44.56-3.20 42.88 1.16L42.88 1.16L42.88 1.16Q41.20 5.52 38.40 9.76L38.40 9.76L38.40 9.76Q32.56 18.32 20.72 18.32L20.72 18.32L20.72 18.32Q11.36 18.32 6.24 12.28L6.24 12.28L6.24 12.28Q1.12 6.24 1.12-1.20L1.12-1.20L1.12-1.20Q1.12-2.16 1.20-3.20L1.20-3.20L3.04-3.20L3.04-3.20Q2.96-2.24 2.96-1.36L2.96-1.36L2.96-1.36Q2.96 5.92 7.72 11.28L7.72 11.28L7.72 11.28Q12.48 16.64 20.72 16.64L20.72 16.64L20.72 16.64Q28.24 16.64 32.32 5.60L32.32 5.60L32.32 5.60Q34.72-0.96 36.28-7.92L36.28-7.92L36.28-7.92Q37.84-14.88 38.40-16.80L38.40-16.80L29.60-16.80L29.76-18.24L38.72-18.24L38.72-18.24Q41.52-28.88 44.24-33.96L44.24-33.96L44.24-33.96Q46.96-39.04 50.56-40.08L50.56-40.08L50.56-40.08Q47.76-41.04 44.60-42.88L44.60-42.88L44.60-42.88Q41.44-44.72 40.24-45.28L40.24-45.28L40.24-45.28Q36.48-47.04 31.76-47.04" fill="#009ef7" stroke="none" stroke-width="none" transform="translate(-86.39999389648438,20.45920150756836)" style="fill: rgb(0, 158, 247);"></path></g><g class="path" style="transform: matrix(1, 0, 0, 1, 0, 14.925); opacity: 0.05; transform-origin: -6.04px 5.2592px; animation: 1s linear 0.165s 1 normal forwards running float-btt-in-7823ec4e-485e-4552-aa56-c85c699f8908;"><path d="M67.68-29.52L67.68-29.52L67.68-29.52Q65.76-29.52 63.68-27.28L63.68-27.28L62.48-28.24L62.48-28.24Q63.04-29.36 64.96-30.24L64.96-30.24L64.96-30.24Q66.88-31.12 69.20-31.12L69.20-31.12L69.20-31.12Q76.48-31.12 76.48-24.56L76.48-24.56L76.48-24.56Q76.48-21.76 75.04-14.56L75.04-14.56L75.04-14.56Q73.60-7.36 73.60-5.12L73.60-5.12L73.60-5.12Q73.60-1.68 76.88-1.68L76.88-1.68L76.88-1.68Q79.20-1.68 81.40-4.40L81.40-4.40L81.40-4.40Q83.60-7.12 85.20-11.92L85.20-11.92L88.56-30.40L88.56-30.40Q94.48-30.40 97.20-30.88L97.20-30.88L98.24-31.12L92.88-0.88L92.88-0.88Q95.28-1.12 96.88-3.12L96.88-3.12L98.08-2.16L98.08-2.16Q95.68 0.72 92.08 0.72L92.08 0.72L92.08 0.72Q88.48 0.72 86.48-1.04L86.48-1.04L86.48-1.04Q84.48-2.80 84.40-6L84.40-6L84.40-6Q81.04 0.72 74.48 0.72L74.48 0.72L74.48 0.72Q69.76 0.72 67.12-1.96L67.12-1.96L67.12-1.96Q64.48-4.64 64.48-9.36L64.48-9.36L64.48-9.36Q64.48-11.84 66-18.92L66-18.92L66-18.92Q67.52-26 67.68-29.52" fill="#009ef7" stroke="none" stroke-width="none" transform="translate(-86.39999389648438,20.45920150756836)" style="fill: rgb(0, 158, 247);"></path></g><g class="path" style="transform: matrix(1, 0, 0, 1, 0, 14.925); opacity: 0.05; transform-origin: 34.44px 5.2592px; animation: 1s linear 0.33s 1 normal forwards running float-btt-in-7823ec4e-485e-4552-aa56-c85c699f8908;"><path d="M133.60-0.88L133.60-0.88L133.60-0.88Q135.52-0.88 137.60-3.12L137.60-3.12L138.80-2.16L138.80-2.16Q138.24-1.04 136.32-0.16L136.32-0.16L136.32-0.16Q134.40 0.72 132.08 0.72L132.08 0.72L132.08 0.72Q124.80 0.72 124.80-5.84L124.80-5.84L124.80-5.84Q124.80-8.64 126.24-15.84L126.24-15.84L126.24-15.84Q127.68-23.04 127.68-25.28L127.68-25.28L127.68-25.28Q127.68-28.72 124.40-28.72L124.40-28.72L124.40-28.72Q121.76-28.72 119.32-25.28L119.32-25.28L119.32-25.28Q116.88-21.84 115.28-15.84L115.28-15.84L112.56-0.88L112.56-0.88Q115.04-1.12 116.64-3.12L116.64-3.12L117.84-2.16L117.84-2.16Q115.44 0.72 111.84 0.72L111.84 0.72L111.84 0.72Q108.24 0.72 106.20-1.12L106.20-1.12L106.20-1.12Q104.16-2.96 104.16-5.92L104.16-5.92L104.16-5.92Q104.16-7.04 105.44-14.72L105.44-14.72L108.08-29.52L108.08-29.52Q105.68-29.28 104.08-27.28L104.08-27.28L102.88-28.24L102.88-28.24Q105.28-31.12 108.92-31.12L108.92-31.12L108.92-31.12Q112.56-31.12 114.56-29.28L114.56-29.28L114.56-29.28Q116.56-27.44 116.56-24.08L116.56-24.08L116.56-23.60L116.56-23.60Q119.84-31.12 126.80-31.12L126.80-31.12L126.80-31.12Q131.52-31.12 134.16-28.44L134.16-28.44L134.16-28.44Q136.80-25.76 136.80-21.04L136.80-21.04L136.80-21.04Q136.80-18.56 135.28-11.48L135.28-11.48L135.28-11.48Q133.76-4.40 133.60-0.88" fill="#009ef7" stroke="none" stroke-width="none" transform="translate(-86.39999389648438,20.45920150756836)" style="fill: rgb(0, 158, 247);"></path></g><g class="path" style="transform: matrix(1, 0, 0, 1, 0, 14.925); opacity: 0.05; transform-origin: 71.84px 5.2592px; animation: 1s linear 0.495s 1 normal forwards running float-btt-in-7823ec4e-485e-4552-aa56-c85c699f8908;"><path d="M155.12 0.72L155.12 0.72Q148.96 0.72 145.76-2.36L145.76-2.36L145.76-2.36Q142.56-5.44 142.56-10.12L142.56-10.12L142.56-10.12Q142.56-14.80 143.40-18.12L143.40-18.12L143.40-18.12Q144.24-21.44 146.16-24.52L146.16-24.52L146.16-24.52Q148.08-27.60 151.96-29.36L151.96-29.36L151.96-29.36Q155.84-31.12 161.64-31.12L161.64-31.12L161.64-31.12Q167.44-31.12 170.68-28.04L170.68-28.04L170.68-28.04Q173.92-24.96 173.92-19.60L173.92-19.60L173.92-19.60Q173.92-10.48 169.08-4.88L169.08-4.88L169.08-4.88Q164.24 0.72 155.12 0.72L155.12 0.72zM151.60-7.52L151.60-7.52L151.60-7.52Q151.60-1.12 155.32-1.12L155.32-1.12L155.32-1.12Q159.04-1.12 161.96-7.56L161.96-7.56L161.96-7.56Q164.88-14 164.88-22.88L164.88-22.88L164.88-22.88Q164.88-29.60 161.24-29.60L161.24-29.60L161.24-29.60Q157.60-29.60 154.60-23.48L154.60-23.48L154.60-23.48Q151.60-17.36 151.60-7.52" fill="#009ef7" stroke="none" stroke-width="none" transform="translate(-86.39999389648438,20.45920150756836)" style="fill: rgb(0, 158, 247);"></path></g></g>
</g>
</g>
<style id="float-btt-in-7823ec4e-485e-4552-aa56-c85c699f8908" data-anikit="">@keyframes float-btt-in-7823ec4e-485e-4552-aa56-c85c699f8908
{
  0% {
    animation-timing-function: cubic-bezier(0.2242,0.7499,0.3142,0.8148);
    transform: translate(0px,14.925px) rotate(0deg) scale(1,1) skewX(0deg) skewY(0deg);
    opacity: 0.05;
  }
  100% {
    transform: translate(0px,0px) rotate(0deg) scale(1,1) skewX(0deg) skewY(0deg);
    opacity: 1;
  }
}</style></svg>