<?xml version="1.0" standalone="no"?>
<!DOCTYPE svg PUBLIC "-//W3C//DTD SVG 20010904//EN"
 "http://www.w3.org/TR/2001/REC-SVG-20010904/DTD/svg10.dtd">
<svg version="1.0" xmlns="http://www.w3.org/2000/svg"
 width="500.000000pt" height="500.000000pt" viewBox="0 0 500.000000 500.000000"
 preserveAspectRatio="xMidYMid meet">

<g transform="translate(0.000000,500.000000) scale(0.100000,-0.100000)"
fill="#000000" stroke="none">
<path d="M2312 3650 c-121 -24 -246 -90 -356 -186 -174 -153 -262 -337 -273
-575 -12 -247 75 -468 249 -635 87 -83 240 -167 368 -201 94 -25 300 -24 400
1 338 87 571 344 621 688 32 222 -48 486 -197 647 -218 235 -495 324 -812 261z
m400 -123 c192 -66 359 -210 437 -378 33 -70 61 -167 61 -211 l0 -28 -167 0
c-190 0 -216 -7 -221 -56 -6 -60 9 -64 209 -64 l179 0 0 -22 c0 -51 -33 -158
-73 -238 -52 -106 -165 -225 -275 -290 -144 -85 -361 -113 -540 -70 -273 65
-491 303 -526 573 l-6 47 173 0 c197 0 221 7 215 63 -5 50 -30 57 -220 57
l-167 0 5 38 c8 56 43 171 66 217 32 62 125 181 176 224 61 53 210 127 302
151 108 29 266 23 372 -13z"/>
<path d="M2290 3319 c-14 -5 -45 -31 -70 -58 l-45 -48 -95 -6 c-100 -6 -120
-17 -120 -62 0 -44 28 -55 139 -55 116 0 142 9 181 67 39 57 61 63 231 63
l152 0 58 -62 58 -63 111 -3 c95 -3 114 -1 131 14 47 43 6 100 -70 97 -100 -5
-128 4 -162 52 -51 70 -69 75 -286 74 -103 0 -199 -5 -213 -10z"/>
<path d="M2463 3010 c-76 -32 -64 -145 18 -165 32 -8 83 16 100 46 14 27 4 82
-19 103 -23 20 -71 28 -99 16z"/>
<path d="M1976 2594 c-19 -19 -21 -54 -3 -76 9 -13 34 -17 104 -20 l92 -3 51
-50 51 -50 202 -3 c111 -2 217 0 236 3 24 5 48 22 77 53 l43 47 92 1 c77 1 94
4 105 19 20 26 17 59 -5 79 -17 15 -36 17 -134 14 l-115 -3 -55 -52 -56 -53
-165 0 -164 0 -40 45 c-21 24 -51 49 -66 55 -15 5 -74 10 -131 10 -81 0 -107
-3 -119 -16z"/>
<path d="M1571 3539 c-62 -67 -2 -179 82 -153 69 20 90 98 41 148 -34 34 -94
36 -123 5z"/>
<path d="M3305 3535 c-47 -46 -27 -123 39 -145 81 -26 142 51 101 129 -16 33
-33 41 -81 41 -24 0 -43 -8 -59 -25z"/>
<path d="M1577 2280 c-34 -27 -43 -70 -23 -109 30 -57 85 -67 135 -25 24 20
31 34 31 62 -1 78 -83 119 -143 72z"/>
<path d="M3309 2271 c-20 -20 -29 -39 -29 -61 0 -45 47 -90 93 -90 43 0 87 46
87 90 0 16 -11 42 -26 59 -35 42 -84 43 -125 2z"/>
<path d="M1833 1855 c-20 -14 -21 -25 -25 -167 -3 -132 -6 -158 -23 -188 -44
-73 -142 -78 -207 -9 -44 46 -80 51 -104 14 -44 -67 81 -175 203 -175 103 0
198 62 228 148 20 59 22 340 3 364 -19 24 -51 30 -75 13z"/>
<path d="M2040 1850 c-18 -18 -20 -33 -20 -177 0 -87 5 -175 11 -196 15 -54
68 -109 126 -130 60 -21 101 -22 155 0 55 21 75 38 101 88 19 35 22 61 25 203
3 114 0 172 -8 193 -16 37 -53 48 -80 24 -18 -16 -20 -32 -20 -154 -1 -207
-18 -251 -100 -251 -30 0 -44 6 -64 31 -26 30 -26 33 -26 190 0 146 -2 161
-20 179 -11 11 -29 20 -40 20 -11 0 -29 -9 -40 -20z"/>
<path d="M2565 1845 l-25 -24 0 -220 c0 -219 0 -220 24 -248 24 -27 26 -27 53
-13 l28 16 5 157 5 157 76 -77 c118 -122 129 -138 129 -189 0 -36 5 -47 25
-60 21 -14 31 -15 50 -6 l25 12 0 244 c0 242 0 245 -22 260 -57 40 -84 9 -95
-111 l-8 -91 -85 94 c-79 88 -123 124 -150 124 -6 0 -22 -11 -35 -25z"/>
<path d="M3207 1825 c-61 -23 -117 -74 -143 -129 -64 -138 5 -303 145 -349 66
-21 104 -21 167 -1 93 31 153 113 162 219 4 58 1 72 -26 128 -61 122 -185 176
-305 132z m139 -114 c24 -11 50 -33 62 -53 82 -132 -86 -279 -202 -177 -64 55
-67 145 -8 204 48 49 84 55 148 26z"/>
</g>
</svg>
