<?xml version="1.0" encoding="utf-8"?>
<svg xmlns="http://www.w3.org/2000/svg" xmlns:xlink="http://www.w3.org/1999/xlink" style="margin: auto; background: rgb(241, 242, 243); display: block; z-index: 1; position: relative; shape-rendering: auto;" width="1286" height="1303" preserveAspectRatio="xMidYMid" viewBox="0 0 1286 1303">
<g transform="translate(643,651.5) scale(1,1) translate(-643,-651.5)"><path id="path0" d="M 868.4705956523068 893.0424066497014
c 0 29.636008692800637 -7.251363829089517 8.512470581974652 -15.763834411064169 8.512470581974652
S 836.9429268301784 922.678415342502 836.9429268301784 893.0424066497014
s 7.251363829089517 -8.512470581974652 15.763834411064169 -8.512470581974652
S 868.4705956523068 863.4063979569008 868.4705956523068 893.0424066497014
z" fill="none" stroke="none"></path>
<circle cx="0" cy="0" r="4.8317554549955055" fill="#009ef7" opacity="0.9">
  <animateMotion begin="-4.879086581771213s" dur="10s" repeatCount="indefinite">
    <mpath xlink:href="#path0"></mpath>
  </animateMotion>
</circle><path id="path1" d="M 1068.7291793279358 566.1394064182306
c 0 19.036221313458476 -4.657798832016436 5.4678508028019035 -10.12564963481834 5.4678508028019035
S 1048.4778800582992 585.175627731689 1048.4778800582992 566.1394064182306
s 4.657798832016436 -5.4678508028019035 10.12564963481834 -5.4678508028019035
S 1068.7291793279358 547.1031851047721 1068.7291793279358 566.1394064182306
z" fill="none" stroke="none"></path>
<circle cx="0" cy="0" r="5.038871050537417" fill="#009ef7" opacity="0.9">
  <animateMotion begin="-6.2858356375610835s" dur="10s" repeatCount="indefinite">
    <mpath xlink:href="#path1"></mpath>
  </animateMotion>
</circle><path id="path2" d="M 989.7472235657323 1189.5162313067603
c 0 21.337178369416165 -5.220798962729487 6.12876399972592 -11.349562962455407 6.12876399972592
S 967.0480976408215 1210.8534096761764 967.0480976408215 1189.5162313067603
s 5.220798962729487 -6.12876399972592 11.349562962455407 -6.12876399972592
S 989.7472235657323 1168.1790529373443 989.7472235657323 1189.5162313067603
z" fill="none" stroke="none"></path>
<circle cx="0" cy="0" r="4.329815492822151" fill="#009ef7" opacity="0.9">
  <animateMotion begin="-9.443423564396124s" dur="10s" repeatCount="indefinite">
    <mpath xlink:href="#path2"></mpath>
  </animateMotion>
</circle><path id="path3" d="M 73.3201789084923 1236.2281335976827
c 0 21.46275636689362 -5.251525494027161 6.164834275597103 -11.416359769624265 6.164834275597103
S 50.48745936924377 1257.6908899645764 50.48745936924377 1236.2281335976827
s 5.251525494027161 -6.164834275597103 11.416359769624265 -6.164834275597103
S 73.3201789084923 1214.765377230789 73.3201789084923 1236.2281335976827
z" fill="none" stroke="none"></path>
<circle cx="0" cy="0" r="7.708014689282893" fill="#009ef7" opacity="0.9">
  <animateMotion begin="-6.4359192289852585s" dur="10s" repeatCount="indefinite">
    <mpath xlink:href="#path3"></mpath>
  </animateMotion>
</circle><path id="path4" d="M 334.2660914146592 839.7466574806858
c 0 26.312051965737467 -6.4380552682123575 7.557717053988421 -13.995772322200779 7.557717053988421
S 306.27454677025764 866.0587094464233 306.27454677025764 839.7466574806858
s 6.4380552682123575 -7.557717053988421 13.995772322200779 -7.557717053988421
S 334.2660914146592 813.4346055149483 334.2660914146592 839.7466574806858
z" fill="none" stroke="none"></path>
<circle cx="0" cy="0" r="6.171193417686731" fill="#009ef7" opacity="0.9">
  <animateMotion begin="-6.288092409062669s" dur="10s" repeatCount="indefinite">
    <mpath xlink:href="#path4"></mpath>
  </animateMotion>
</circle><path id="path5" d="M 1055.0662110375401 902.4029683692427
c 0 18.824278971293598 -4.605940599359071 5.406973747073693 -10.012914346432764 5.406973747073693
S 1035.0403823446745 921.2272473405362 1035.0403823446745 902.4029683692427
s 4.605940599359071 -5.406973747073693 10.012914346432764 -5.406973747073693
S 1055.0662110375401 883.5786893979491 1055.0662110375401 902.4029683692427
z" fill="none" stroke="none"></path>
<circle cx="0" cy="0" r="6.602268060435995" fill="#009ef7" opacity="0.9">
  <animateMotion begin="-5.3507112428513075s" dur="10s" repeatCount="indefinite">
    <mpath xlink:href="#path5"></mpath>
  </animateMotion>
</circle><path id="path6" d="M 340.9991214612596 1214.5786538757661
c 0 23.3696493662616 -5.718105696000179 6.71255886052195 -12.430664556522128 6.71255886052195
S 316.1377923482154 1237.9483032420278 316.1377923482154 1214.5786538757661
s 5.718105696000179 -6.71255886052195 12.430664556522128 -6.71255886052195
S 340.9991214612596 1191.2090045095044 340.9991214612596 1214.5786538757661
z" fill="none" stroke="none"></path>
<circle cx="0" cy="0" r="4.138778609900038" fill="#009ef7" opacity="0.9">
  <animateMotion begin="-3.3082151175271135s" dur="10s" repeatCount="indefinite">
    <mpath xlink:href="#path6"></mpath>
  </animateMotion>
</circle><path id="path7" d="M 844.6398258002905 416.85528703987484
c 0 30.67617450969275 -7.505872486414183 8.811241614486216 -16.317114100900397 8.811241614486216
S 812.0055975984897 447.5314615495676 812.0055975984897 416.85528703987484
s 7.505872486414183 -8.811241614486216 16.317114100900397 -8.811241614486216
S 844.6398258002905 386.17911253018207 844.6398258002905 416.85528703987484
z" fill="none" stroke="none"></path>
<circle cx="0" cy="0" r="5.089869096082929" fill="#009ef7" opacity="0.9">
  <animateMotion begin="-8.591114502779131s" dur="10s" repeatCount="indefinite">
    <mpath xlink:href="#path7"></mpath>
  </animateMotion>
</circle><path id="path8" d="M 326.12025747767024 1058.6167489605482
c 0 25.036280614970586 -6.125898448343866 7.191272091534105 -13.31717053987797 7.191272091534105
S 299.4859163979143 1083.6530295755188 299.4859163979143 1058.6167489605482
s 6.125898448343866 -7.191272091534105 13.31717053987797 -7.191272091534105
S 326.12025747767024 1033.5804683455776 326.12025747767024 1058.6167489605482
z" fill="none" stroke="none"></path>
<circle cx="0" cy="0" r="7.3950111302927235" fill="#009ef7" opacity="0.9">
  <animateMotion begin="-6.405641206565134s" dur="10s" repeatCount="indefinite">
    <mpath xlink:href="#path8"></mpath>
  </animateMotion>
</circle><path id="path9" d="M 163.8379100854131 1204.7744701832514
c 0 28.217003083645377 -6.90416032897706 8.104883864451331 -15.009044193428391 8.104883864451331
S 133.81982169855632 1232.9914732668967 133.81982169855632 1204.7744701832514
s 6.90416032897706 -8.104883864451331 15.009044193428391 -8.104883864451331
S 163.8379100854131 1176.5574670996061 163.8379100854131 1204.7744701832514
z" fill="none" stroke="none"></path>
<circle cx="0" cy="0" r="7.163300627350793" fill="#009ef7" opacity="0.9">
  <animateMotion begin="-4.263544810416047s" dur="10s" repeatCount="indefinite">
    <mpath xlink:href="#path9"></mpath>
  </animateMotion>
</circle><path id="path10" d="M 213.44386287753787 994.9864777252083
c 0 19.06652081394259 -4.665212539581696 5.476553850813296 -10.141766390394993 5.476553850813296
S 193.16033009674788 1014.0529985391508 193.16033009674788 994.9864777252083
s 4.665212539581696 -5.476553850813296 10.141766390394993 -5.476553850813296
S 213.44386287753787 975.9199569112657 213.44386287753787 994.9864777252083
z" fill="none" stroke="none"></path>
<circle cx="0" cy="0" r="7.4208437920685375" fill="#009ef7" opacity="0.9">
  <animateMotion begin="-4.619090059097319s" dur="10s" repeatCount="indefinite">
    <mpath xlink:href="#path10"></mpath>
  </animateMotion>
</circle><path id="path11" d="M 487.6292558497008 973.224113236938
c 0 33.6148955475758 -8.224921251002588 9.655342338133474 -17.88026358913606 9.655342338133474
S 451.8687286714287 1006.8390087845138 451.8687286714287 973.224113236938
s 8.224921251002588 -9.655342338133474 17.88026358913606 -9.655342338133474
S 487.6292558497008 939.6092176893623 487.6292558497008 973.224113236938
z" fill="none" stroke="none"></path>
<circle cx="0" cy="0" r="5.900425574002618" fill="#009ef7" opacity="0.9">
  <animateMotion begin="-6.126713147973164s" dur="10s" repeatCount="indefinite">
    <mpath xlink:href="#path11"></mpath>
  </animateMotion>
</circle><path id="path12" d="M 528.0209266249819 683.0008856181776
c 0 34.68377741661415 -8.48645617640559 9.96236159838917 -18.448817774794758 9.96236159838917
S 491.1232910753924 717.6846630347917 491.1232910753924 683.0008856181776
s 8.48645617640559 -9.96236159838917 18.448817774794758 -9.96236159838917
S 528.0209266249819 648.3171082015634 528.0209266249819 683.0008856181776
z" fill="none" stroke="none"></path>
<circle cx="0" cy="0" r="5.581349279915253" fill="#009ef7" opacity="0.9">
  <animateMotion begin="-5.297260752824111s" dur="10s" repeatCount="indefinite">
    <mpath xlink:href="#path12"></mpath>
  </animateMotion>
</circle><path id="path13" d="M 514.5186543993708 1064.6211194095915
c 0 25.01925907204293 -6.121733602733908 7.186382924948502 -13.30811652768241 7.186382924948502
S 487.902421344006 1089.6403784816346 487.902421344006 1064.6211194095915
s 6.121733602733908 -7.186382924948502 13.30811652768241 -7.186382924948502
S 514.5186543993708 1039.6018603375485 514.5186543993708 1064.6211194095915
z" fill="none" stroke="none"></path>
<circle cx="0" cy="0" r="6.133767140468694" fill="#009ef7" opacity="0.9">
  <animateMotion begin="-2.117229124349087s" dur="10s" repeatCount="indefinite">
    <mpath xlink:href="#path13"></mpath>
  </animateMotion>
</circle><path id="path14" d="M 656.6307853549522 69.43877067713161
c 0 37.175267488597925 -9.096076087635662 10.678002363746213 -19.774078451381875 10.678002363746213
S 617.0826284521884 106.61403816572954 617.0826284521884 69.43877067713161
s 9.096076087635662 -10.678002363746213 19.774078451381875 -10.678002363746213
S 656.6307853549522 32.26350318853369 656.6307853549522 69.43877067713161
z" fill="none" stroke="none"></path>
<circle cx="0" cy="0" r="4.177104703193308" fill="#009ef7" opacity="0.9">
  <animateMotion begin="-7.7700086906182815s" dur="10s" repeatCount="indefinite">
    <mpath xlink:href="#path14"></mpath>
  </animateMotion>
</circle><path id="path15" d="M 96.63721564710627 488.8182373220242
c 0 31.993974754740407 -7.828312971904567 9.18975870614884 -17.01807167805341 9.18975870614884
S 62.60107229099945 520.8122120767646 62.60107229099945 488.8182373220242
s 7.828312971904567 -9.18975870614884 17.01807167805341 -9.18975870614884
S 96.63721564710627 456.82426256728377 96.63721564710627 488.8182373220242
z" fill="none" stroke="none"></path>
<circle cx="0" cy="0" r="6.596219606912953" fill="#009ef7" opacity="0.9">
  <animateMotion begin="-0.6827793876871091s" dur="10s" repeatCount="indefinite">
    <mpath xlink:href="#path15"></mpath>
  </animateMotion>
</circle><path id="path16" d="M 972.7932295834551 1017.4277621927446
c 0 35.34160596502478 -8.647414225484788 10.151312351656056 -18.798726577140844 10.151312351656056
S 935.1957764291733 1052.7693681577693 935.1957764291733 1017.4277621927446
s 8.647414225484788 -10.151312351656056 18.798726577140844 -10.151312351656056
S 972.7932295834551 982.0861562277198 972.7932295834551 1017.4277621927446
z" fill="none" stroke="none"></path>
<circle cx="0" cy="0" r="7.127656403406859" fill="#009ef7" opacity="0.9">
  <animateMotion begin="-5.484948131488929s" dur="10s" repeatCount="indefinite">
    <mpath xlink:href="#path16"></mpath>
  </animateMotion>
</circle><path id="path17" d="M 773.9521973765891 109.70429100459687
c 0 29.40983449163656 -7.196023333060008 8.447505651853055 -15.643528984913061 8.447505651853055
S 742.665139406763 139.11412549623344 742.665139406763 109.70429100459687
s 7.196023333060008 -8.447505651853055 15.643528984913061 -8.447505651853055
S 773.9521973765891 80.29445651296031 773.9521973765891 109.70429100459687
z" fill="none" stroke="none"></path>
<circle cx="0" cy="0" r="7.085350800066096" fill="#009ef7" opacity="0.9">
  <animateMotion begin="-7.414058738416161s" dur="10s" repeatCount="indefinite">
    <mpath xlink:href="#path17"></mpath>
  </animateMotion>
</circle><path id="path18" d="M 395.4613438855778 76.16161737897833
c 0 19.87717862442163 -4.8635649825712495 5.709402370844511 -10.57296735341576 5.709402370844511
S 374.3154091787462 96.03879600339997 374.3154091787462 76.16161737897833
s 4.8635649825712495 -5.709402370844511 10.57296735341576 -5.709402370844511
S 395.4613438855778 56.2844387545567 395.4613438855778 76.16161737897833
z" fill="none" stroke="none"></path>
<circle cx="0" cy="0" r="6.798354722347005" fill="#009ef7" opacity="0.9">
  <animateMotion begin="-8.312522867206907s" dur="10s" repeatCount="indefinite">
    <mpath xlink:href="#path18"></mpath>
  </animateMotion>
</circle><path id="path19" d="M 935.0181102604305 1276.77930518701
c 0 20.33955019704348 -4.976698452468084 5.842211226810361 -10.818909679278445 5.842211226810361
S 913.3802909018735 1297.1188553840536 913.3802909018735 1276.77930518701
s 4.976698452468084 -5.842211226810361 10.818909679278445 -5.842211226810361
S 935.0181102604305 1256.4397549899666 935.0181102604305 1276.77930518701
z" fill="none" stroke="none"></path>
<circle cx="0" cy="0" r="7.321170260142218" fill="#009ef7" opacity="0.9">
  <animateMotion begin="-8.838531556062517s" dur="10s" repeatCount="indefinite">
    <mpath xlink:href="#path19"></mpath>
  </animateMotion>
</circle><path id="path20" d="M 521.3669435241648 378.99026339544326
c 0 25.216587161731056 -6.1700160076575985 7.243062269858921 -13.413078277516519 7.243062269858921
S 494.54078696913166 404.20685055717433 494.54078696913166 378.99026339544326
s 6.1700160076575985 -7.243062269858921 13.413078277516519 -7.243062269858921
S 521.3669435241648 353.7736762337122 521.3669435241648 378.99026339544326
z" fill="none" stroke="none"></path>
<circle cx="0" cy="0" r="4.663424467165791" fill="#009ef7" opacity="0.9">
  <animateMotion begin="-0.3743864941661168s" dur="10s" repeatCount="indefinite">
    <mpath xlink:href="#path20"></mpath>
  </animateMotion>
</circle><path id="path21" d="M 253.0879186738208 1245.6177376448113
c 0 33.90650624841732 -8.296272805463813 9.739102858587955 -18.035375664051767 9.739102858587955
S 217.01716734571727 1279.5242438932287 217.01716734571727 1245.6177376448113
s 8.296272805463813 -9.739102858587955 18.035375664051767 -9.739102858587955
S 253.0879186738208 1211.711231396394 253.0879186738208 1245.6177376448113
z" fill="none" stroke="none"></path>
<circle cx="0" cy="0" r="6.723548987625208" fill="#009ef7" opacity="0.9">
  <animateMotion begin="-0.49809197370456415s" dur="10s" repeatCount="indefinite">
    <mpath xlink:href="#path21"></mpath>
  </animateMotion>
</circle><path id="path22" d="M 199.5793927822158 284.5329175352831
c 0 25.4184484002269 -6.2194075872895604 7.301043689426876 -13.520451276716436 7.301043689426876
S 172.5384902287829 309.95136593551 172.5384902287829 284.5329175352831
s 6.2194075872895604 -7.301043689426876 13.520451276716436 -7.301043689426876
S 199.5793927822158 259.1144691350562 199.5793927822158 284.5329175352831
z" fill="none" stroke="none"></path>
<circle cx="0" cy="0" r="6.113525934375511" fill="#009ef7" opacity="0.9">
  <animateMotion begin="-8.067283470146675s" dur="10s" repeatCount="indefinite">
    <mpath xlink:href="#path22"></mpath>
  </animateMotion>
</circle><path id="path23" d="M 1175.904413080737 1240.1825024574189
c 0 29.455556881332416 -7.2072107262834635 8.460638678680588 -15.667849404964052 8.460638678680588
S 1144.5687142708089 1269.6380593387512 1144.5687142708089 1240.1825024574189
s 7.2072107262834635 -8.460638678680588 15.667849404964052 -8.460638678680588
S 1175.904413080737 1210.7269455760866 1175.904413080737 1240.1825024574189
z" fill="none" stroke="none"></path>
<circle cx="0" cy="0" r="4.976688092687902" fill="#009ef7" opacity="0.9">
  <animateMotion begin="-7.888911788980795s" dur="10s" repeatCount="indefinite">
    <mpath xlink:href="#path23"></mpath>
  </animateMotion>
</circle><path id="path24" d="M 593.7445060491845 264.7080608158627
c 0 25.27387796541068 -6.184033970260059 7.25951813900094 -13.443552109260999 7.25951813900094
S 566.8574018306625 289.9819387812734 566.8574018306625 264.7080608158627
s 6.184033970260059 -7.25951813900094 13.443552109260999 -7.25951813900094
S 593.7445060491845 239.43418285045203 593.7445060491845 264.7080608158627
z" fill="none" stroke="none"></path>
<circle cx="0" cy="0" r="4.609187246635578" fill="#009ef7" opacity="0.9">
  <animateMotion begin="-3.542556886862047s" dur="10s" repeatCount="indefinite">
    <mpath xlink:href="#path24"></mpath>
  </animateMotion>
</circle><path id="path25" d="M 1074.8416211390693 1187.1151451747235
c 0 33.49508867448375 -8.19560680333113 9.620929725649589 -17.816536528980716 9.620929725649589
S 1039.2085480811077 1220.6102338492071 1039.2085480811077 1187.1151451747235
s 8.19560680333113 -9.620929725649589 17.816536528980716 -9.620929725649589
S 1074.8416211390693 1153.6200565002398 1074.8416211390693 1187.1151451747235
z" fill="none" stroke="none"></path>
<circle cx="0" cy="0" r="4.159253448371279" fill="#009ef7" opacity="0.9">
  <animateMotion begin="-5.8351667900079125s" dur="10s" repeatCount="indefinite">
    <mpath xlink:href="#path25"></mpath>
  </animateMotion>
</circle><path id="path26" d="M 1240.2411303376084 366.2971339838527
c 0 34.38907292920288 -8.41434763161347 9.877712437111466 -18.292060068724936 9.877712437111466
S 1203.6570102001583 400.68620691305557 1203.6570102001583 366.2971339838527
s 8.41434763161347 -9.877712437111466 18.292060068724936 -9.877712437111466
S 1240.2411303376084 331.9080610546498 1240.2411303376084 366.2971339838527
z" fill="none" stroke="none"></path>
<circle cx="0" cy="0" r="5.347063250094666" fill="#009ef7" opacity="0.9">
  <animateMotion begin="-8.678114924684362s" dur="10s" repeatCount="indefinite">
    <mpath xlink:href="#path26"></mpath>
  </animateMotion>
</circle><path id="path27" d="M 1141.4350473916852 913.3922437843405
c 0 34.4215788747497 -8.4223012140345 9.887049251257894 -18.309350465292393 9.887049251257894
S 1104.8163464611002 947.8138226590902 1104.8163464611002 913.3922437843405
s 8.4223012140345 -9.887049251257894 18.309350465292393 -9.887049251257894
S 1141.4350473916852 878.9706649095908 1141.4350473916852 913.3922437843405
z" fill="none" stroke="none"></path>
<circle cx="0" cy="0" r="5.316539136691434" fill="#009ef7" opacity="0.9">
  <animateMotion begin="-3.439337069631645s" dur="10s" repeatCount="indefinite">
    <mpath xlink:href="#path27"></mpath>
  </animateMotion>
</circle><path id="path28" d="M 846.7317011059272 135.25681109628746
c 0 35.982015952059406 -8.804110286142194 10.335259901123447 -19.13937018726564 10.335259901123447
S 808.4529607313959 171.23882704834688 808.4529607313959 135.25681109628746
s 8.804110286142194 -10.335259901123447 19.13937018726564 -10.335259901123447
S 846.7317011059272 99.27479514422805 846.7317011059272 135.25681109628746
z" fill="none" stroke="none"></path>
<circle cx="0" cy="0" r="5.285629948042251" fill="#009ef7" opacity="0.9">
  <animateMotion begin="-4.3661783051713865s" dur="10s" repeatCount="indefinite">
    <mpath xlink:href="#path28"></mpath>
  </animateMotion>
</circle><path id="path29" d="M 474.7047368912012 567.3295686894097
c 0 21.082029117017147 -5.158368826504195 6.055476448504925 -11.21384527500912 6.055476448504925
S 452.27704634118294 588.4115978064268 452.27704634118294 567.3295686894097
s 5.158368826504195 -6.055476448504925 11.21384527500912 -6.055476448504925
S 474.7047368912012 546.2475395723926 474.7047368912012 567.3295686894097
z" fill="none" stroke="none"></path>
<circle cx="0" cy="0" r="5.97457144151421" fill="#009ef7" opacity="0.9">
  <animateMotion begin="-2.13070393617679s" dur="10s" repeatCount="indefinite">
    <mpath xlink:href="#path29"></mpath>
  </animateMotion>
</circle></g>
</svg>