<svg version="1.1" id="圖層_1" xmlns="http://www.w3.org/2000/svg" x="0" y="0" viewBox="0 0 100 100" xml:space="preserve" preserveAspectRatio="xMidYMid" width="200" height="200" xmlns:xlink="http://www.w3.org/1999/xlink" style="margin-top:0px;margin-right:0px;margin-bottom:0px;margin-left:0px;display:block;shape-rendering:auto;background-position-x:0%;background-position-y:0%;background-size:auto;background-origin:padding-box;background-clip:border-box;background:scroll rgba(0, 0, 0, 0) none  repeat;width:200px;height:200px;;animation:none"><g class="ldl-scale" style="transform-origin:50px 50px;transform:matrix(0.8, 0, 0, 0.8, 0, 0);;animation:none"><g class="ldl-ani"><g class="ldl-layer"><g class="ldl-ani" style="transform:matrix(1, 0, 0, 1, 0, 0);transform-box:view-box;animation-duration:1s;animation-timing-function:linear;animation-delay:-0.75s;animation-iteration-count:infinite;animation-direction:normal;animation-fill-mode:forwards;animation-play-state:paused;animation-name:animate;animation-timeline:auto;animation-range-start:normal;animation-range-end:normal;transform-origin:50px 50px;;animation:none"><path d="M76.5 90h-53C16 90 10 84 10 76.5v-53C10 16 16 10 23.5 10h53C84 10 90 16 90 23.5v53C90 84 84 90 76.5 90z" fill="#333" style="fill:rgb(243, 244, 246);;animation:none"></path></g></g>
<g class="ldl-layer"><g class="ldl-ani" style="transform:matrix(1, 0, 0, 1, 0, 0);transform-box:view-box;animation-duration:1s;animation-timing-function:linear;animation-delay:-1s;animation-iteration-count:infinite;animation-direction:normal;animation-fill-mode:forwards;animation-play-state:paused;animation-name:animate;animation-timeline:auto;animation-range-start:normal;animation-range-end:normal;transform-origin:50px 50px;;animation:none"><path d="M73.3 33.5c-2.3-2.3-6.1-2.3-8.4 0L44.5 53.9l-9.4-9.4c-2.3-2.3-6.1-2.3-8.4 0-1.1 1.1-1.7 2.6-1.7 4.2s.6 3.1 1.7 4.2l13.6 13.6c1.1 1.1 2.6 1.7 4.2 1.7s3.1-.6 4.2-1.7L73.2 42c1.1-1.1 1.7-2.6 1.7-4.2s-.5-3.1-1.6-4.3z" fill="#abbd81" style="fill:rgb(171, 189, 129);;animation:none"></path></g></g>
<metadata xmlns:d="https://loading.io/stock/"><d:name>ok</d:name>
<d:tags>ok,confirm,ready,positive,check,right,correct,affirmative,success</d:tags>
<d:license>by</d:license>
<d:slug>2x4q5m</d:slug></metadata></g></g>
<STYLE type="text/css">@keyframes animate { 0.00% {animation-timing-function: cubic-bezier(0.33,0.00,0.67,0.00);transform: translate(0.00px,0.00px) rotate(0.00deg) scale(1.00, 1.00) skew(0deg, 0.00deg) ;opacity: 1.00;}50.00% {animation-timing-function: cubic-bezier(0.33,0.00,0.67,0.00);transform: translate(0.00px,0.00px) rotate(0.00deg) ;}100.00% {animation-timing-function: cubic-bezier(0.33,0.00,0.67,0.00);transform: translate(0.00px,0.00px) rotate(0.00deg) ;} }</STYLE><!-- [ldio] generated by https://loading.io --></svg>